<svg width="50" height="50" viewBox="0 0 50 50" fill="none" xmlns="http://www.w3.org/2000/svg">
<g id="forward_to_inbox">
<mask id="mask0_3_63" style="mask-type:alpha" maskUnits="userSpaceOnUse" x="0" y="0" width="50" height="50">
<rect id="Bounding box" width="50" height="50" fill="#D3D3D3" fill-opacity="0.7"/>
</mask>
<g mask="url(#mask0_3_63)">
<path id="forward_to_inbox_2" d="M38.3818 47.4307L36.0813 45.113L39.788 41.3542H29.3104V38.0557H39.788L36.0292 34.2797L38.3818 31.9792L46.1161 39.6963L38.3818 47.4307ZM6.29844 41.3542C5.3842 41.3542 4.6059 41.033 3.96354 40.3906C3.32118 39.7482 3 38.9699 3 38.0557V11.9443C3 11.03 3.32118 10.2517 3.96354 9.60935C4.6059 8.96699 5.3842 8.64581 6.29844 8.64581H40.6734C41.5877 8.64581 42.366 8.96699 43.0083 9.60935C43.6507 10.2517 43.9719 11.03 43.9719 11.9443V28.8193C43.1038 28.3797 42.2083 28.0514 41.2854 27.8344C40.3625 27.6173 39.4149 27.5088 38.4427 27.5088C34.976 27.5088 32.0377 28.7168 29.6276 31.1328C27.2172 33.5488 26.012 36.4842 26.012 39.939V41.3542H6.29844ZM23.4859 26.1547L40.6734 15.2432V11.9443L23.4859 22.7083L6.29844 11.9443V15.2432L23.4859 26.1547Z" fill="#D3D3D3" fill-opacity="0.7"/>
</g>
</g>
</svg>
